<svg xmlns="http://www.w3.org/2000/svg" viewBox="0 0 512 512" role="img" aria-label="Honors Algebra 2 Prep logo">
  <defs>
    <linearGradient id="tile" x1="52" y1="44" x2="460" y2="468" gradientUnits="userSpaceOnUse">
      <stop stop-color="#7859f6"/>
      <stop offset=".48" stop-color="#aa5fe3"/>
      <stop offset="1" stop-color="#e762a8"/>
    </linearGradient>
    <linearGradient id="card" x1="156" y1="128" x2="352" y2="386" gradientUnits="userSpaceOnUse">
      <stop stop-color="#fffaff"/>
      <stop offset="1" stop-color="#f3ebff"/>
    </linearGradient>
    <linearGradient id="curve" x1="184" y1="302" x2="318" y2="302" gradientUnits="userSpaceOnUse">
      <stop stop-color="#9677f7"/>
      <stop offset="1" stop-color="#c96bdb"/>
    </linearGradient>
    <linearGradient id="pencil" x1="320" y1="156" x2="384" y2="258" gradientUnits="userSpaceOnUse">
      <stop stop-color="#ffe083"/>
      <stop offset="1" stop-color="#ff9cb6"/>
    </linearGradient>
    <filter id="shadow" x="-25%" y="-25%" width="150%" height="160%">
      <feDropShadow dx="0" dy="22" stdDeviation="22" flood-color="#2c1248" flood-opacity=".24"/>
    </filter>
  </defs>

  <rect x="28" y="28" width="456" height="456" rx="128" fill="url(#tile)"/>
  <circle cx="112" cy="120" r="52" fill="#ffffff" opacity=".16"/>
  <circle cx="398" cy="382" r="76" fill="#5c2362" opacity=".2"/>

  <path d="M386 102l12 29 30 12-30 12-12 30-12-30-29-12 29-12 12-29z" fill="#fff" opacity=".92"/>
  <path d="M110 358l9 21 22 9-22 9-9 22-9-22-21-9 21-9 9-21z" fill="#fff" opacity=".82"/>

  <g filter="url(#shadow)">
    <rect x="154" y="122" width="206" height="260" rx="58" fill="url(#card)" transform="rotate(2 257 252)"/>

    <path d="M190 176h78" stroke="#e4d8ff" stroke-width="12" stroke-linecap="round"/>
    <path d="M190 211h49" stroke="#eee5ff" stroke-width="10" stroke-linecap="round"/>
    <circle cx="301" cy="178" r="7" fill="#b997ff" opacity=".65"/>
    <path d="M309 214l14-14 14 14" fill="none" stroke="#d67fcf" stroke-width="9" stroke-linecap="round" stroke-linejoin="round" opacity=".72"/>

    <text x="197" y="282" fill="#34204d" font-family="Manrope, Arial, sans-serif" font-size="88" font-weight="900" letter-spacing="-7">x</text>
    <text x="283" y="220" fill="#8a63f6" font-family="Manrope, Arial, sans-serif" font-size="58" font-weight="900">2</text>

    <path d="M188 312c39-40 86-40 125 0" fill="none" stroke="url(#curve)" stroke-width="15" stroke-linecap="round"/>
    <path d="M210 340h78" stroke="#eadfff" stroke-width="10" stroke-linecap="round"/>

    <g transform="rotate(34 348 226)">
      <rect x="332" y="160" width="32" height="118" rx="16" fill="url(#pencil)"/>
      <rect x="332" y="160" width="32" height="28" rx="14" fill="#fff0aa"/>
      <path d="M332 278h32l-16 32z" fill="#fff1df"/>
      <path d="M342 300h12l-6 10z" fill="#34204d"/>
    </g>
  </g>

  <circle cx="126" cy="124" r="8" fill="#fff" opacity=".56"/>
  <circle cx="416" cy="338" r="7" fill="#fff" opacity=".5"/>
</svg>
