<svg xmlns="http://www.w3.org/2000/svg" viewBox="0 0 512 512" role="img" aria-label="Honors Algebra 2 Prep logo">
  <defs>
    <linearGradient id="tile" x1="48" y1="40" x2="464" y2="472" gradientUnits="userSpaceOnUse">
      <stop stop-color="#7657f4"/>
      <stop offset=".42" stop-color="#a45ee5"/>
      <stop offset="1" stop-color="#ec64a7"/>
    </linearGradient>
    <linearGradient id="notebook" x1="136" y1="108" x2="358" y2="398" gradientUnits="userSpaceOnUse">
      <stop stop-color="#fffaff"/>
      <stop offset="1" stop-color="#f1e9ff"/>
    </linearGradient>
    <linearGradient id="cover" x1="116" y1="118" x2="224" y2="384" gradientUnits="userSpaceOnUse">
      <stop stop-color="#8a63f6"/>
      <stop offset="1" stop-color="#d15ec3"/>
    </linearGradient>
    <linearGradient id="pencil" x1="316" y1="136" x2="416" y2="278" gradientUnits="userSpaceOnUse">
      <stop stop-color="#ffe18a"/>
      <stop offset="1" stop-color="#ff9fb8"/>
    </linearGradient>
    <filter id="shadow" x="-24%" y="-24%" width="150%" height="160%">
      <feDropShadow dx="0" dy="24" stdDeviation="24" flood-color="#2d1248" flood-opacity=".28"/>
    </filter>
  </defs>

  <rect x="28" y="28" width="456" height="456" rx="128" fill="url(#tile)"/>
  <circle cx="108" cy="118" r="54" fill="#fff" opacity=".16"/>
  <circle cx="408" cy="390" r="76" fill="#55205d" opacity=".2"/>

  <path d="M402 80l13 32 33 13-33 13-13 33-13-33-32-13 32-13 13-32z" fill="#fff" opacity=".96"/>
  <path d="M105 364l9 22 23 9-23 9-9 23-9-23-22-9 22-9 9-22z" fill="#fff" opacity=".82"/>

  <g filter="url(#shadow)">
    <rect x="126" y="116" width="226" height="286" rx="54" fill="url(#cover)" transform="rotate(-5 239 259)"/>
    <rect x="156" y="104" width="224" height="284" rx="54" fill="url(#notebook)" transform="rotate(3 268 246)"/>
    <path d="M196 158h116" stroke="#dccfff" stroke-width="13" stroke-linecap="round"/>
    <path d="M196 206h136" stroke="#eadfff" stroke-width="12" stroke-linecap="round"/>
    <path d="M202 318c38-40 82-40 120 0" fill="none" stroke="#9879f7" stroke-width="14" stroke-linecap="round"/>

    <text x="200" y="284" fill="#34204d" font-family="Manrope, Arial, sans-serif" font-size="98" font-weight="900" letter-spacing="-6">x</text>
    <text x="288" y="216" fill="#8a63f6" font-family="Manrope, Arial, sans-serif" font-size="62" font-weight="900">2</text>

    <circle cx="226" cy="346" r="8" fill="#34204d"/>
    <circle cx="286" cy="346" r="8" fill="#34204d"/>
    <path d="M238 368c14 10 30 10 44 0" fill="none" stroke="#34204d" stroke-width="9" stroke-linecap="round"/>

    <g transform="rotate(36 354 204)">
      <rect x="334" y="118" width="38" height="156" rx="19" fill="url(#pencil)"/>
      <rect x="334" y="118" width="38" height="34" rx="17" fill="#fff3b8" opacity=".95"/>
      <path d="M334 274h38l-19 38z" fill="#fff4de"/>
      <path d="M346 298h14l-7 14z" fill="#34204d"/>
    </g>
  </g>

  <circle cx="132" cy="118" r="10" fill="#fff" opacity=".55"/>
  <circle cx="420" cy="346" r="8" fill="#fff" opacity=".5"/>
</svg>
