<svg xmlns="http://www.w3.org/2000/svg" viewBox="0 0 512 512" role="img" aria-label="Honors Algebra 2 Prep logo">
  <defs>
    <linearGradient id="tile" x1="70" y1="38" x2="454" y2="474" gradientUnits="userSpaceOnUse">
      <stop stop-color="#7b5cf6"/>
      <stop offset=".5" stop-color="#a65de0"/>
      <stop offset="1" stop-color="#e45f9f"/>
    </linearGradient>
    <linearGradient id="card" x1="170" y1="150" x2="342" y2="354" gradientUnits="userSpaceOnUse">
      <stop stop-color="#fffaff"/>
      <stop offset="1" stop-color="#f4ebff"/>
    </linearGradient>
    <linearGradient id="curve" x1="182" y1="308" x2="330" y2="308" gradientUnits="userSpaceOnUse">
      <stop stop-color="#9c7cf8"/>
      <stop offset="1" stop-color="#c66add"/>
    </linearGradient>
    <filter id="softShadow" x="-30%" y="-30%" width="160%" height="170%">
      <feDropShadow dx="0" dy="22" stdDeviation="24" flood-color="#34164e" flood-opacity=".22"/>
    </filter>
  </defs>

  <rect x="32" y="32" width="448" height="448" rx="132" fill="url(#tile)"/>
  <circle cx="126" cy="120" r="52" fill="#b293ff" opacity=".55"/>
  <circle cx="390" cy="386" r="70" fill="#7a2d79" opacity=".26"/>

  <g filter="url(#softShadow)">
    <rect x="160" y="144" width="192" height="224" rx="58" fill="url(#card)"/>
    <text x="198" y="286" fill="#332047" font-family="Manrope, Arial, sans-serif" font-size="94" font-weight="900" letter-spacing="-6">x</text>
    <text x="286" y="218" fill="#8a63ef" font-family="Manrope, Arial, sans-serif" font-size="66" font-weight="900">2</text>
    <path d="M190 314c43-46 89-46 132 0" fill="none" stroke="url(#curve)" stroke-width="15" stroke-linecap="round"/>
  </g>

  <path d="M384 138l11 27 28 11-28 11-11 28-11-28-27-11 27-11 11-27z" fill="#ffffff" opacity=".96"/>
  <path d="M132 348l8 19 20 8-20 8-8 20-8-20-19-8 19-8 8-19z" fill="#ffffff" opacity=".86"/>
</svg>
