<svg xmlns="http://www.w3.org/2000/svg" viewBox="0 0 512 512" role="img" aria-label="Honors Algebra 2 Prep logo">
  <defs>
    <linearGradient id="tile" x1="52" y1="44" x2="460" y2="468" gradientUnits="userSpaceOnUse">
      <stop stop-color="#7859f6"/>
      <stop offset=".48" stop-color="#aa5fe3"/>
      <stop offset="1" stop-color="#e762a8"/>
    </linearGradient>
    <linearGradient id="card" x1="142" y1="118" x2="356" y2="394" gradientUnits="userSpaceOnUse">
      <stop stop-color="#fffaff"/>
      <stop offset="1" stop-color="#f2e9ff"/>
    </linearGradient>
    <linearGradient id="curve" x1="174" y1="320" x2="334" y2="320" gradientUnits="userSpaceOnUse">
      <stop stop-color="#9273f6"/>
      <stop offset="1" stop-color="#c96bdb"/>
    </linearGradient>
    <linearGradient id="pencil" x1="356" y1="152" x2="410" y2="260" gradientUnits="userSpaceOnUse">
      <stop stop-color="#ffe17c"/>
      <stop offset="1" stop-color="#ff9ab2"/>
    </linearGradient>
    <filter id="shadow" x="-25%" y="-25%" width="150%" height="160%">
      <feDropShadow dx="0" dy="22" stdDeviation="22" flood-color="#2c1248" flood-opacity=".24"/>
    </filter>
  </defs>

  <rect x="28" y="28" width="456" height="456" rx="128" fill="url(#tile)"/>
  <circle cx="112" cy="120" r="52" fill="#ffffff" opacity=".16"/>
  <circle cx="398" cy="382" r="76" fill="#5c2362" opacity=".2"/>
  <path d="M392 94l13 31 32 13-32 13-13 32-13-32-31-13 31-13 13-31z" fill="#fff" opacity=".94"/>
  <path d="M108 362l9 21 22 9-22 9-9 22-9-22-21-9 21-9 9-21z" fill="#fff" opacity=".84"/>

  <g filter="url(#shadow)">
    <g transform="rotate(32 374 224)">
      <rect x="358" y="158" width="34" height="124" rx="17" fill="url(#pencil)"/>
      <rect x="358" y="158" width="34" height="29" rx="14.5" fill="#fff0aa"/>
      <path d="M358 282h34l-17 34z" fill="#fff1df"/>
      <path d="M368 304h14l-7 12z" fill="#34204d"/>
    </g>

    <rect x="142" y="118" width="230" height="276" rx="66" fill="url(#card)" transform="rotate(1.5 257 256)"/>

    <path d="M184 176h78" stroke="#e2d7ff" stroke-width="12" stroke-linecap="round"/>
    <path d="M184 208h50" stroke="#eee5ff" stroke-width="10" stroke-linecap="round"/>
    <circle cx="312" cy="181" r="7" fill="#b997ff" opacity=".66"/>
    <path d="M306 218l13-13 13 13" fill="none" stroke="#d67fcf" stroke-width="8" stroke-linecap="round" stroke-linejoin="round" opacity=".7"/>

    <text x="188" y="293" fill="#34204d" font-family="Manrope, Arial, sans-serif" font-size="98" font-weight="900" letter-spacing="-7">x</text>
    <text x="280" y="224" fill="#8a63f6" font-family="Manrope, Arial, sans-serif" font-size="61" font-weight="900">2</text>
    <path d="M180 324c44-43 100-43 144 0" fill="none" stroke="url(#curve)" stroke-width="15" stroke-linecap="round"/>
    <path d="M212 350h84" stroke="#eadfff" stroke-width="10" stroke-linecap="round"/>
  </g>

  <circle cx="126" cy="124" r="8" fill="#fff" opacity=".56"/>
  <circle cx="416" cy="338" r="7" fill="#fff" opacity=".5"/>
</svg>
