<svg xmlns="http://www.w3.org/2000/svg" viewBox="0 0 512 512" role="img" aria-label="Honors Algebra 2 Prep logo">
  <defs>
    <linearGradient id="bg" x1="64" y1="48" x2="448" y2="464" gradientUnits="userSpaceOnUse">
      <stop stop-color="#7457f4"/>
      <stop offset=".48" stop-color="#a55fe7"/>
      <stop offset="1" stop-color="#df5fa8"/>
    </linearGradient>
    <linearGradient id="card" x1="128" y1="116" x2="388" y2="396" gradientUnits="userSpaceOnUse">
      <stop stop-color="#ffffff" stop-opacity=".96"/>
      <stop offset="1" stop-color="#fff1fb" stop-opacity=".9"/>
    </linearGradient>
    <filter id="shadow" x="-20%" y="-20%" width="140%" height="140%">
      <feDropShadow dx="0" dy="22" stdDeviation="22" flood-color="#35184f" flood-opacity=".28"/>
    </filter>
  </defs>

  <rect width="512" height="512" rx="116" fill="url(#bg)"/>
  <circle cx="96" cy="96" r="58" fill="#fff" opacity=".13"/>
  <circle cx="418" cy="410" r="82" fill="#2c1247" opacity=".13"/>

  <g filter="url(#shadow)">
    <rect x="116" y="112" width="280" height="288" rx="72" fill="url(#card)"/>
    <path d="M158 322c64-64 130-64 196 0" fill="none" stroke="#7b5df4" stroke-width="18" stroke-linecap="round" opacity=".68"/>
    <text x="157" y="286" fill="#35204f" font-family="Manrope, Arial, sans-serif" font-size="132" font-weight="800" letter-spacing="-8">x</text>
    <text x="260" y="214" fill="#8b5cf6" font-family="Manrope, Arial, sans-serif" font-size="72" font-weight="800">2</text>
  </g>

  <path d="M382 122l11 26 27 11-27 11-11 27-11-27-26-11 26-11 11-26z" fill="#fff" opacity=".95"/>
  <path d="M122 370l7 16 16 7-16 7-7 16-7-16-16-7 16-7 7-16z" fill="#fff" opacity=".82"/>
</svg>
